<svg xmlns="http://www.w3.org/2000/svg" width="135.5" height="65.81" viewBox="0 0 135.5 65.81"><defs><style>.a{fill:none;}.b{fill:#fae042;}</style></defs><g transform="translate(-364.33 -267.97)"><path class="a" d="M753.556,307.041a7.985,7.985,0,0,0-1.6-3.691,3.49,3.49,0,0,0-5.648.059,9.194,9.194,0,0,0-1.216,2.244,16.749,16.749,0,0,0-.974,5.28,40.45,40.45,0,0,0,.3,7.865,31.886,31.886,0,0,0,2.2,8.227c.353.833.775,1.637,1.234,2.6.415-.6.757-1.058,1.069-1.538a30.3,30.3,0,0,0,4.859-13.528A24.568,24.568,0,0,0,753.556,307.041Z" transform="translate(-294.156 -26.315)"/><path class="a" d="M588.146,369.17a6.815,6.815,0,0,0-4.842-3.689,9.551,9.551,0,0,0-2.161-.267c-4.372-.336-8.976,3.106-9.437,7.577,2.9.021,6.028-.037,8.891-.055s5.71.086,8.665-.069c-.156-.683-.243-1.205-.413-1.734A12.543,12.543,0,0,0,588.146,369.17Z" transform="translate(-160.647 -75.314)"/><path class="a" d="M890.139,306.662a8.143,8.143,0,0,0-1.4-3.235,3.527,3.527,0,0,0-4.1-1.318,4.055,4.055,0,0,0-1.993,1.672,10.522,10.522,0,0,0-1.467,4.01,33.133,33.133,0,0,0-.349,8.077,34.755,34.755,0,0,0,2.031,9.926,19.455,19.455,0,0,0,1.721,3.642c.534-.8,1.013-1.473,1.445-2.174a30.249,30.249,0,0,0,4.478-13.443A23.353,23.353,0,0,0,890.139,306.662Z" transform="translate(-400.035 -26.278)"/><path class="b" d="M557.736,333.266A18.654,18.654,0,0,0,549.7,332.1c-7.221.509-12.307,4.005-15.135,10.456a21.278,21.278,0,0,0-1,13.8c1.874,7.844,8.234,12.9,16.531,13.49a29.78,29.78,0,0,0,6.3-.218,19.581,19.581,0,0,0,8.5-3.146c.361-.248.678-.557,1.051-.867l-3.057-5.656c-.579.354-1.048.668-1.541.938A16.928,16.928,0,0,1,550.5,362.9a10.178,10.178,0,0,1-6.031-2.956,10.759,10.759,0,0,1-3.088-6.843c8.846,0,17.529,0,26.125,0a2.087,2.087,0,0,0,.19-.348,2.756,2.756,0,0,0,.059-.442,23.343,23.343,0,0,0-1.736-10.991C564.2,337.466,562.8,335.5,557.736,333.266Zm-7.224,13.8c-2.863.017-5.994.075-8.891.055.46-4.471,5.065-7.914,9.437-7.577a9.554,9.554,0,0,1,2.161.267,6.815,6.815,0,0,1,4.842,3.689,12.546,12.546,0,0,1,.7,1.763c.17.529.257,1.05.413,1.734C556.222,347.156,553.364,347.054,550.512,347.07Z" transform="translate(-130.562 -49.648)"/><path class="b" d="M397.565,339.4h-7.933v.678c0,6.015.007,12.03-.009,18.045a12.612,12.612,0,0,1-.2,2.467,7.768,7.768,0,0,1-5.272,6.158,9.839,9.839,0,0,1-5.206.443,7.564,7.564,0,0,1-5.936-4.6,10.6,10.6,0,0,1-.763-4.285q0-9.105,0-18.211V339.4h-7.894c-.011.194-.021.377-.021.553q0,10.347,0,20.694a18.329,18.329,0,0,0,.407,4.109,12.335,12.335,0,0,0,6.617,8.72,14.949,14.949,0,0,0,7.793,1.463c3.993-.241,7.346-1.361,9.928-4.466.136-.164.324-.492.441-.672a24.878,24.878,0,0,1,0,4.684,8.045,8.045,0,0,1-4.817,6.525c-1.6.8-6.925,2.2-13.954-1.98a10.652,10.652,0,0,1-1.074-.715l-3.867,5.355c6.6,6.566,17.172,5.9,20.986,4.584a15.3,15.3,0,0,0,9.577-8.649,17.107,17.107,0,0,0,1.185-6.47q0-7.45,0-14.9,0-9.105-.005-18.211A4.141,4.141,0,0,0,397.565,339.4Z" transform="translate(0 -55.331)"/><path class="b" d="M750.13,309.738a2.647,2.647,0,0,0-.547-.564c.2-.264.367-.479.535-.69a37.127,37.127,0,0,0,8.435-25,22.488,22.488,0,0,0-1.291-6.968,14.3,14.3,0,0,0-2.485-4.457,11.323,11.323,0,0,0-10.441-3.977,11.131,11.131,0,0,0-7.647,4.164,15.955,15.955,0,0,0-2.608,4.674,29.542,29.542,0,0,0-1.63,9.58,45.663,45.663,0,0,0,.581,8.326,36.215,36.215,0,0,0,3.184,10.4c.628,1.279,1.36,2.512,2.095,3.836a16.032,16.032,0,0,1-14.573,2.418,23.488,23.488,0,0,1-4.914-2.176c.164-.219.289-.4.424-.563a37.833,37.833,0,0,0,7.817-16.3,33.277,33.277,0,0,0,.365-12.375,18.119,18.119,0,0,0-2.348-6.518,11.774,11.774,0,0,0-14.668-4.665,12.139,12.139,0,0,0-6.374,6.247,24.227,24.227,0,0,0-2.306,9.368,46,46,0,0,0,.634,11.411,35.63,35.63,0,0,0,4.243,11.719c.307.519.621,1.035.939,1.562-.059.039-.115.076-.176.118a16.8,16.8,0,0,1-7.566,3.355v7.165a22.3,22.3,0,0,0,13.42-4.769,32.427,32.427,0,0,0,7.913,3.825,25.636,25.636,0,0,0,7.741,1.238,23.871,23.871,0,0,0,14.656-5.149,22.966,22.966,0,0,0,16.177,4.637v-6.977A15.419,15.419,0,0,1,750.13,309.738Zm-36.553-6.43c-.459-.961-.88-1.765-1.234-2.6a31.884,31.884,0,0,1-2.2-8.227,40.445,40.445,0,0,1-.3-7.865,16.751,16.751,0,0,1,.974-5.28,9.193,9.193,0,0,1,1.216-2.244,3.49,3.49,0,0,1,5.648-.059,7.984,7.984,0,0,1,1.6,3.691,24.566,24.566,0,0,1,.222,7.515,30.3,30.3,0,0,1-4.859,13.528C714.334,302.25,713.993,302.711,713.577,303.307Zm30.844-.149a19.449,19.449,0,0,1-1.721-3.642,34.753,34.753,0,0,1-2.031-9.926,33.136,33.136,0,0,1,.349-8.077,10.523,10.523,0,0,1,1.467-4.01,4.056,4.056,0,0,1,1.993-1.672,3.527,3.527,0,0,1,4.1,1.318,8.143,8.143,0,0,1,1.4,3.235,23.351,23.351,0,0,1,.356,7.157,30.248,30.248,0,0,1-4.478,13.443C745.433,301.685,744.954,302.358,744.421,303.158Z" transform="translate(-259.883 0)"/></g></svg>