<svg xmlns="http://www.w3.org/2000/svg" width="488" height="237.013" viewBox="0 0 488 237.013"><defs><style>.a{fill:none;}.b{fill:#fae042;}</style></defs><g transform="translate(-364.33 -267.971)"><path class="a" d="M778.29,320.311c-.981-4.82-2.506-9.458-5.755-13.294-5.767-6.807-14.865-6.8-20.34.213a33.109,33.109,0,0,0-4.38,8.082c-2.427,6.075-3.123,12.542-3.508,19.016a145.664,145.664,0,0,0,1.079,28.325,114.837,114.837,0,0,0,7.91,29.628c1.272,3,2.79,5.9,4.443,9.357,1.5-2.146,2.725-3.81,3.851-5.54a109.116,109.116,0,0,0,17.5-48.72C780.043,338.316,780.114,329.28,778.29,320.311Z" transform="translate(-71.568 -6.402)"/><path class="a" d="M630.913,379.52c-3.461-6.94-9.3-11.435-17.44-13.285a34.4,34.4,0,0,0-7.781-.962c-15.745-1.212-32.328,11.187-33.986,27.289,10.434.074,21.708-.135,32.019-.2,10.275-.061,20.565.308,31.207-.249-.562-2.461-.875-4.34-1.488-6.245A45.19,45.19,0,0,0,630.913,379.52Z" transform="translate(-39.085 -18.324)"/><path class="a" d="M914.629,319.073a29.326,29.326,0,0,0-5.06-11.652c-3.75-4.907-9.364-6.718-14.783-4.747a14.606,14.606,0,0,0-7.179,6.022,37.9,37.9,0,0,0-5.285,14.442,119.33,119.33,0,0,0-1.256,29.088,125.161,125.161,0,0,0,7.314,35.748,70.061,70.061,0,0,0,6.2,13.116c1.922-2.881,3.648-5.3,5.2-7.829a108.942,108.942,0,0,0,16.126-48.414A84.1,84.1,0,0,0,914.629,319.073Z" transform="translate(-97.329 -6.393)"/><path class="b" d="M622.424,336.4c-8.167-3.6-20.034-4.813-28.943-4.185-26.005,1.834-44.322,14.425-54.51,37.655-7.043,16.059-7.629,32.827-3.6,49.713,6.75,28.25,29.655,46.452,59.536,48.583a107.246,107.246,0,0,0,22.7-.785c11.078-1.565,21.42-5.011,30.624-11.33,1.3-.893,2.443-2.006,3.786-3.123l-11.01-20.369c-2.086,1.277-3.774,2.4-5.549,3.378a60.966,60.966,0,0,1-39.084,7.183c-8.506-1.234-15.785-4.576-21.721-10.647-5.618-5.746-11.123-15.569-11.123-24.644,31.857-.018,63.13.008,94.088-.015a7.515,7.515,0,0,0,.685-1.255,9.936,9.936,0,0,0,.213-1.592c.648-13.174-.53-27.5-6.251-39.585C645.713,351.528,640.665,344.453,622.424,336.4ZM596.406,386.12c-10.311.062-21.586.271-32.019.2,1.658-16.1,18.24-28.5,33.986-27.289a34.41,34.41,0,0,1,7.782.962c8.144,1.849,13.978,6.344,17.44,13.285a45.19,45.19,0,0,1,2.531,6.351c.613,1.9.926,3.783,1.488,6.245C616.971,386.429,606.68,386.06,596.406,386.12Z" transform="translate(-31.766 -12.079)"/><path class="b" d="M484.026,339.4H455.457v2.442c0,21.663.025,43.326-.032,64.989a45.429,45.429,0,0,1-.711,8.884c-2.206,10.858-8.431,18.424-18.989,22.18a35.435,35.435,0,0,1-18.749,1.6c-9.994-1.879-17.283-7.142-21.378-16.582a38.167,38.167,0,0,1-2.749-15.433q-.015-32.793,0-65.585V339.4h-28.43c-.04.7-.075,1.359-.075,1.993q-.011,37.264.011,74.529a66.008,66.008,0,0,0,1.467,14.8c3.239,14.044,10.814,24.822,23.832,31.4,8.821,4.46,18.291,5.859,28.067,5.268,14.381-.869,26.457-4.9,35.757-16.083.49-.59,1.169-1.771,1.587-2.422a89.594,89.594,0,0,1,0,16.871c-1.128,10.409-6.988,18.3-17.349,23.5-5.759,2.888-24.94,7.934-50.254-7.13a38.365,38.365,0,0,1-3.869-2.574l-13.928,19.284c23.776,23.647,61.843,21.252,75.582,16.51,15.6-5.384,28.282-15.778,34.49-31.149a61.612,61.612,0,0,0,4.266-23.3q0-26.83.007-53.66,0-32.792-.019-65.586A14.9,14.9,0,0,0,484.026,339.4Z" transform="translate(0 -13.462)"/><path class="b" d="M881.043,418.395a9.539,9.539,0,0,0-1.97-2.03c.734-.95,1.321-1.725,1.927-2.486,20.984-26.353,31.451-56.274,30.377-90.043a80.991,80.991,0,0,0-4.65-25.1,51.518,51.518,0,0,0-8.949-16.053c-9.891-11.671-22.718-15.9-37.6-14.323a40.087,40.087,0,0,0-27.541,15,57.463,57.463,0,0,0-9.394,16.833c-4.12,11.133-5.561,22.737-5.869,34.5a164.446,164.446,0,0,0,2.093,29.987,130.427,130.427,0,0,0,11.467,37.448c2.262,4.608,4.9,9.046,7.545,13.815-16.2,11.446-33.8,14.4-52.484,8.708a84.592,84.592,0,0,1-17.7-7.838c.593-.79,1.041-1.427,1.527-2.028a136.253,136.253,0,0,0,28.154-58.717,119.85,119.85,0,0,0,1.313-44.568,65.256,65.256,0,0,0-8.456-23.475c-12.567-20.643-35.95-23.563-52.826-16.8-10.735,4.3-17.922,12.359-22.954,22.5-5.266,10.616-7.567,22.024-8.305,33.737a165.687,165.687,0,0,0,2.283,41.095c2.791,14.909,7.533,29.1,15.28,42.2,1.1,1.868,2.236,3.729,3.381,5.625-.211.141-.413.273-.634.427-8.2,6.224-17.424,10.576-27.248,12.084V454.7c17.726-.567,33.872-5.869,48.33-17.175a116.783,116.783,0,0,0,28.5,13.775,92.33,92.33,0,0,0,27.879,4.459c16.156,0,34.4-4.643,52.783-18.543,17.125,13.233,36.6,18.119,58.262,16.7V428.792C903.117,429.494,891.355,425.424,881.043,418.395ZM749.4,395.236c-1.653-3.46-3.17-6.357-4.443-9.357a114.828,114.828,0,0,1-7.91-29.628,145.645,145.645,0,0,1-1.079-28.325c.385-6.474,1.082-12.941,3.508-19.016a33.1,33.1,0,0,1,4.38-8.082c5.474-7.016,14.573-7.02,20.34-.213,3.25,3.836,4.774,8.474,5.755,13.294,1.824,8.969,1.754,18,.8,27.067a109.113,109.113,0,0,1-17.5,48.72C752.125,391.425,750.9,393.089,749.4,395.236Zm111.082-.538a70.036,70.036,0,0,1-6.2-13.116,125.161,125.161,0,0,1-7.314-35.748,119.342,119.342,0,0,1,1.255-29.088,37.9,37.9,0,0,1,5.285-14.442,14.608,14.608,0,0,1,7.179-6.022c5.418-1.97,11.033-.16,14.783,4.747a29.326,29.326,0,0,1,5.06,11.652,84.1,84.1,0,0,1,1.281,25.775,108.941,108.941,0,0,1-16.126,48.414C864.13,389.394,862.4,391.817,860.482,394.7Z" transform="translate(-63.23 0)"/></g></svg>